<mxfile host="app.diagrams.net" modified="2023-10-23T14:59:46.705Z" agent="Mozilla/5.0 (Windows NT 10.0; Win64; x64) AppleWebKit/537.36 (KHTML, like Gecko) Chrome/118.0.0.0 Safari/537.36 Edg/118.0.2088.61" etag="QSQkJtSjZRSsFABdG8lK" version="22.0.6" type="github">
  <diagram name="第 1 页" id="vjXB-SfW_l7SWCADPFd4">
    <mxGraphModel dx="1173" dy="772" grid="1" gridSize="10" guides="1" tooltips="1" connect="1" arrows="1" fold="1" page="1" pageScale="1" pageWidth="827" pageHeight="1169" math="0" shadow="0">
      <root>
        <mxCell id="0" />
        <mxCell id="1" parent="0" />
        <mxCell id="PWWYntIkdXANuu-mSkj--8" style="rounded=0;orthogonalLoop=1;jettySize=auto;html=1;entryX=0.5;entryY=1;entryDx=0;entryDy=0;endArrow=none;endFill=0;" parent="1" source="PWWYntIkdXANuu-mSkj--1" target="PWWYntIkdXANuu-mSkj--5" edge="1">
          <mxGeometry relative="1" as="geometry" />
        </mxCell>
        <mxCell id="PWWYntIkdXANuu-mSkj--9" style="rounded=0;orthogonalLoop=1;jettySize=auto;html=1;entryX=0.5;entryY=0;entryDx=0;entryDy=0;endArrow=none;endFill=0;" parent="1" source="PWWYntIkdXANuu-mSkj--1" target="PWWYntIkdXANuu-mSkj--7" edge="1">
          <mxGeometry relative="1" as="geometry" />
        </mxCell>
        <mxCell id="PWWYntIkdXANuu-mSkj--49" style="rounded=0;orthogonalLoop=1;jettySize=auto;html=1;entryX=0;entryY=0.5;entryDx=0;entryDy=0;endArrow=none;endFill=0;" parent="1" source="PWWYntIkdXANuu-mSkj--1" target="PWWYntIkdXANuu-mSkj--48" edge="1">
          <mxGeometry relative="1" as="geometry" />
        </mxCell>
        <mxCell id="PWWYntIkdXANuu-mSkj--51" value="1" style="edgeLabel;html=1;align=center;verticalAlign=middle;resizable=0;points=[];" parent="PWWYntIkdXANuu-mSkj--49" vertex="1" connectable="0">
          <mxGeometry x="0.0505" y="2" relative="1" as="geometry">
            <mxPoint as="offset" />
          </mxGeometry>
        </mxCell>
        <mxCell id="PWWYntIkdXANuu-mSkj--1" value="账户" style="whiteSpace=wrap;html=1;align=center;" parent="1" vertex="1">
          <mxGeometry x="124" y="415" width="100" height="40" as="geometry" />
        </mxCell>
        <mxCell id="PWWYntIkdXANuu-mSkj--25" style="rounded=0;orthogonalLoop=1;jettySize=auto;html=1;entryX=0.5;entryY=1;entryDx=0;entryDy=0;endArrow=none;endFill=0;" parent="1" source="PWWYntIkdXANuu-mSkj--2" target="PWWYntIkdXANuu-mSkj--23" edge="1">
          <mxGeometry relative="1" as="geometry" />
        </mxCell>
        <mxCell id="PWWYntIkdXANuu-mSkj--26" style="rounded=0;orthogonalLoop=1;jettySize=auto;html=1;entryX=0;entryY=0.5;entryDx=0;entryDy=0;endArrow=none;endFill=0;" parent="1" source="PWWYntIkdXANuu-mSkj--2" target="PWWYntIkdXANuu-mSkj--27" edge="1">
          <mxGeometry relative="1" as="geometry">
            <mxPoint x="694" y="455" as="targetPoint" />
          </mxGeometry>
        </mxCell>
        <mxCell id="PWWYntIkdXANuu-mSkj--29" style="rounded=0;orthogonalLoop=1;jettySize=auto;html=1;entryX=0.5;entryY=0;entryDx=0;entryDy=0;endArrow=none;endFill=0;" parent="1" source="PWWYntIkdXANuu-mSkj--2" target="PWWYntIkdXANuu-mSkj--28" edge="1">
          <mxGeometry relative="1" as="geometry" />
        </mxCell>
        <mxCell id="PWWYntIkdXANuu-mSkj--32" style="rounded=0;orthogonalLoop=1;jettySize=auto;html=1;endArrow=none;endFill=0;" parent="1" source="PWWYntIkdXANuu-mSkj--2" target="PWWYntIkdXANuu-mSkj--30" edge="1">
          <mxGeometry relative="1" as="geometry" />
        </mxCell>
        <mxCell id="PWWYntIkdXANuu-mSkj--34" style="rounded=0;orthogonalLoop=1;jettySize=auto;html=1;endArrow=none;endFill=0;" parent="1" source="PWWYntIkdXANuu-mSkj--2" target="PWWYntIkdXANuu-mSkj--33" edge="1">
          <mxGeometry relative="1" as="geometry" />
        </mxCell>
        <mxCell id="PWWYntIkdXANuu-mSkj--54" style="rounded=0;orthogonalLoop=1;jettySize=auto;html=1;entryX=1;entryY=0.5;entryDx=0;entryDy=0;endArrow=none;endFill=0;" parent="1" source="PWWYntIkdXANuu-mSkj--2" target="PWWYntIkdXANuu-mSkj--53" edge="1">
          <mxGeometry relative="1" as="geometry" />
        </mxCell>
        <mxCell id="PWWYntIkdXANuu-mSkj--60" value="1" style="edgeLabel;html=1;align=center;verticalAlign=middle;resizable=0;points=[];" parent="PWWYntIkdXANuu-mSkj--54" vertex="1" connectable="0">
          <mxGeometry x="0.0171" y="-1" relative="1" as="geometry">
            <mxPoint as="offset" />
          </mxGeometry>
        </mxCell>
        <mxCell id="PWWYntIkdXANuu-mSkj--2" value="借据" style="whiteSpace=wrap;html=1;align=center;" parent="1" vertex="1">
          <mxGeometry x="514" y="455" width="100" height="40" as="geometry" />
        </mxCell>
        <mxCell id="PWWYntIkdXANuu-mSkj--15" style="rounded=0;orthogonalLoop=1;jettySize=auto;html=1;endArrow=none;endFill=0;" parent="1" source="PWWYntIkdXANuu-mSkj--3" target="PWWYntIkdXANuu-mSkj--10" edge="1">
          <mxGeometry relative="1" as="geometry" />
        </mxCell>
        <mxCell id="PWWYntIkdXANuu-mSkj--16" style="rounded=0;orthogonalLoop=1;jettySize=auto;html=1;entryX=0.5;entryY=1;entryDx=0;entryDy=0;endArrow=none;endFill=0;" parent="1" source="PWWYntIkdXANuu-mSkj--3" target="PWWYntIkdXANuu-mSkj--12" edge="1">
          <mxGeometry relative="1" as="geometry" />
        </mxCell>
        <mxCell id="PWWYntIkdXANuu-mSkj--17" style="rounded=0;orthogonalLoop=1;jettySize=auto;html=1;endArrow=none;endFill=0;" parent="1" source="PWWYntIkdXANuu-mSkj--3" target="PWWYntIkdXANuu-mSkj--14" edge="1">
          <mxGeometry relative="1" as="geometry" />
        </mxCell>
        <mxCell id="PWWYntIkdXANuu-mSkj--18" style="rounded=0;orthogonalLoop=1;jettySize=auto;html=1;entryX=0;entryY=0.5;entryDx=0;entryDy=0;endArrow=none;endFill=0;" parent="1" source="PWWYntIkdXANuu-mSkj--3" target="PWWYntIkdXANuu-mSkj--13" edge="1">
          <mxGeometry relative="1" as="geometry" />
        </mxCell>
        <mxCell id="PWWYntIkdXANuu-mSkj--20" style="rounded=0;orthogonalLoop=1;jettySize=auto;html=1;entryX=1;entryY=1;entryDx=0;entryDy=0;endArrow=none;endFill=0;" parent="1" source="PWWYntIkdXANuu-mSkj--3" target="PWWYntIkdXANuu-mSkj--19" edge="1">
          <mxGeometry relative="1" as="geometry" />
        </mxCell>
        <mxCell id="PWWYntIkdXANuu-mSkj--57" style="rounded=0;orthogonalLoop=1;jettySize=auto;html=1;entryX=1;entryY=0.5;entryDx=0;entryDy=0;endArrow=none;endFill=0;" parent="1" source="PWWYntIkdXANuu-mSkj--3" target="PWWYntIkdXANuu-mSkj--56" edge="1">
          <mxGeometry relative="1" as="geometry" />
        </mxCell>
        <mxCell id="PWWYntIkdXANuu-mSkj--3" value="还款计划" style="whiteSpace=wrap;html=1;align=center;" parent="1" vertex="1">
          <mxGeometry x="350" y="290" width="100" height="40" as="geometry" />
        </mxCell>
        <mxCell id="PWWYntIkdXANuu-mSkj--5" value="账户编号" style="ellipse;whiteSpace=wrap;html=1;align=center;fontStyle=4;" parent="1" vertex="1">
          <mxGeometry x="124" y="350" width="100" height="40" as="geometry" />
        </mxCell>
        <mxCell id="PWWYntIkdXANuu-mSkj--7" value="银行卡号" style="ellipse;whiteSpace=wrap;html=1;align=center;" parent="1" vertex="1">
          <mxGeometry x="50" y="480" width="100" height="40" as="geometry" />
        </mxCell>
        <mxCell id="PWWYntIkdXANuu-mSkj--10" value="还款计划编号" style="ellipse;whiteSpace=wrap;html=1;align=center;fontStyle=4;" parent="1" vertex="1">
          <mxGeometry x="190" y="240" width="100" height="40" as="geometry" />
        </mxCell>
        <mxCell id="PWWYntIkdXANuu-mSkj--12" value="分期数" style="ellipse;whiteSpace=wrap;html=1;align=center;" parent="1" vertex="1">
          <mxGeometry x="390" y="210" width="100" height="40" as="geometry" />
        </mxCell>
        <mxCell id="PWWYntIkdXANuu-mSkj--13" value="当前期数" style="ellipse;whiteSpace=wrap;html=1;align=center;" parent="1" vertex="1">
          <mxGeometry x="500" y="290" width="100" height="40" as="geometry" />
        </mxCell>
        <mxCell id="PWWYntIkdXANuu-mSkj--14" value="当期应还本金" style="ellipse;whiteSpace=wrap;html=1;align=center;" parent="1" vertex="1">
          <mxGeometry x="500" y="240" width="100" height="40" as="geometry" />
        </mxCell>
        <mxCell id="PWWYntIkdXANuu-mSkj--19" value="当期利息" style="ellipse;whiteSpace=wrap;html=1;align=center;" parent="1" vertex="1">
          <mxGeometry x="270" y="210" width="100" height="40" as="geometry" />
        </mxCell>
        <mxCell id="PWWYntIkdXANuu-mSkj--23" value="借据编号" style="ellipse;whiteSpace=wrap;html=1;align=center;fontStyle=4;" parent="1" vertex="1">
          <mxGeometry x="614" y="365" width="100" height="40" as="geometry" />
        </mxCell>
        <mxCell id="PWWYntIkdXANuu-mSkj--27" value="放款日期" style="ellipse;whiteSpace=wrap;html=1;align=center;" parent="1" vertex="1">
          <mxGeometry x="640" y="430" width="100" height="40" as="geometry" />
        </mxCell>
        <mxCell id="PWWYntIkdXANuu-mSkj--28" value="借据状态" style="ellipse;whiteSpace=wrap;html=1;align=center;" parent="1" vertex="1">
          <mxGeometry x="664" y="490" width="100" height="40" as="geometry" />
        </mxCell>
        <mxCell id="PWWYntIkdXANuu-mSkj--30" value="放款金额" style="ellipse;whiteSpace=wrap;html=1;align=center;" parent="1" vertex="1">
          <mxGeometry x="660" y="545" width="100" height="40" as="geometry" />
        </mxCell>
        <mxCell id="PWWYntIkdXANuu-mSkj--33" value="账户编号" style="ellipse;whiteSpace=wrap;html=1;align=center;" parent="1" vertex="1">
          <mxGeometry x="574" y="580" width="100" height="40" as="geometry" />
        </mxCell>
        <mxCell id="PWWYntIkdXANuu-mSkj--40" style="rounded=0;orthogonalLoop=1;jettySize=auto;html=1;entryX=0.5;entryY=0;entryDx=0;entryDy=0;endArrow=none;endFill=0;" parent="1" source="PWWYntIkdXANuu-mSkj--35" target="PWWYntIkdXANuu-mSkj--36" edge="1">
          <mxGeometry relative="1" as="geometry" />
        </mxCell>
        <mxCell id="PWWYntIkdXANuu-mSkj--41" value="" style="rounded=0;orthogonalLoop=1;jettySize=auto;html=1;endArrow=none;endFill=0;" parent="1" source="PWWYntIkdXANuu-mSkj--35" target="PWWYntIkdXANuu-mSkj--39" edge="1">
          <mxGeometry relative="1" as="geometry" />
        </mxCell>
        <mxCell id="PWWYntIkdXANuu-mSkj--42" style="rounded=0;orthogonalLoop=1;jettySize=auto;html=1;entryX=0.5;entryY=0;entryDx=0;entryDy=0;endArrow=none;endFill=0;" parent="1" source="PWWYntIkdXANuu-mSkj--35" target="PWWYntIkdXANuu-mSkj--37" edge="1">
          <mxGeometry relative="1" as="geometry" />
        </mxCell>
        <mxCell id="PWWYntIkdXANuu-mSkj--44" value="" style="rounded=0;orthogonalLoop=1;jettySize=auto;html=1;endArrow=none;endFill=0;exitX=0;exitY=0;exitDx=0;exitDy=0;entryX=1;entryY=0.5;entryDx=0;entryDy=0;" parent="1" source="PWWYntIkdXANuu-mSkj--35" target="PWWYntIkdXANuu-mSkj--43" edge="1">
          <mxGeometry relative="1" as="geometry" />
        </mxCell>
        <mxCell id="PWWYntIkdXANuu-mSkj--46" value="1" style="edgeLabel;html=1;align=center;verticalAlign=middle;resizable=0;points=[];" parent="PWWYntIkdXANuu-mSkj--44" vertex="1" connectable="0">
          <mxGeometry x="0.1127" relative="1" as="geometry">
            <mxPoint as="offset" />
          </mxGeometry>
        </mxCell>
        <mxCell id="PWWYntIkdXANuu-mSkj--35" value="合同" style="whiteSpace=wrap;html=1;align=center;" parent="1" vertex="1">
          <mxGeometry x="350" y="540" width="100" height="40" as="geometry" />
        </mxCell>
        <mxCell id="PWWYntIkdXANuu-mSkj--36" value="合同编号" style="ellipse;whiteSpace=wrap;html=1;align=center;fontStyle=4;" parent="1" vertex="1">
          <mxGeometry x="240" y="600" width="100" height="40" as="geometry" />
        </mxCell>
        <mxCell id="PWWYntIkdXANuu-mSkj--37" value="账户编号" style="ellipse;whiteSpace=wrap;html=1;align=center;" parent="1" vertex="1">
          <mxGeometry x="460" y="600" width="100" height="40" as="geometry" />
        </mxCell>
        <mxCell id="PWWYntIkdXANuu-mSkj--39" value="签订日期" style="ellipse;whiteSpace=wrap;html=1;align=center;" parent="1" vertex="1">
          <mxGeometry x="350" y="610" width="100" height="40" as="geometry" />
        </mxCell>
        <mxCell id="PWWYntIkdXANuu-mSkj--45" style="rounded=0;orthogonalLoop=1;jettySize=auto;html=1;entryX=1;entryY=1;entryDx=0;entryDy=0;endArrow=none;endFill=0;exitX=0.5;exitY=0;exitDx=0;exitDy=0;" parent="1" source="PWWYntIkdXANuu-mSkj--43" target="PWWYntIkdXANuu-mSkj--1" edge="1">
          <mxGeometry relative="1" as="geometry" />
        </mxCell>
        <mxCell id="PWWYntIkdXANuu-mSkj--47" value="1" style="edgeLabel;html=1;align=center;verticalAlign=middle;resizable=0;points=[];" parent="PWWYntIkdXANuu-mSkj--45" vertex="1" connectable="0">
          <mxGeometry x="-0.0094" relative="1" as="geometry">
            <mxPoint as="offset" />
          </mxGeometry>
        </mxCell>
        <mxCell id="PWWYntIkdXANuu-mSkj--43" value="签订" style="shape=rhombus;perimeter=rhombusPerimeter;whiteSpace=wrap;html=1;align=center;" parent="1" vertex="1">
          <mxGeometry x="165" y="510" width="105" height="50" as="geometry" />
        </mxCell>
        <mxCell id="PWWYntIkdXANuu-mSkj--50" style="rounded=0;orthogonalLoop=1;jettySize=auto;html=1;entryX=0;entryY=0.5;entryDx=0;entryDy=0;endArrow=none;endFill=0;exitX=1;exitY=0.5;exitDx=0;exitDy=0;" parent="1" source="PWWYntIkdXANuu-mSkj--48" target="PWWYntIkdXANuu-mSkj--2" edge="1">
          <mxGeometry relative="1" as="geometry" />
        </mxCell>
        <mxCell id="PWWYntIkdXANuu-mSkj--52" value="N" style="edgeLabel;html=1;align=center;verticalAlign=middle;resizable=0;points=[];" parent="PWWYntIkdXANuu-mSkj--50" vertex="1" connectable="0">
          <mxGeometry x="-0.0465" y="2" relative="1" as="geometry">
            <mxPoint as="offset" />
          </mxGeometry>
        </mxCell>
        <mxCell id="PWWYntIkdXANuu-mSkj--48" value="借款" style="shape=rhombus;perimeter=rhombusPerimeter;whiteSpace=wrap;html=1;align=center;" parent="1" vertex="1">
          <mxGeometry x="315" y="430" width="105" height="50" as="geometry" />
        </mxCell>
        <mxCell id="PWWYntIkdXANuu-mSkj--55" style="rounded=0;orthogonalLoop=1;jettySize=auto;html=1;endArrow=none;endFill=0;exitX=0.5;exitY=0;exitDx=0;exitDy=0;entryX=0.75;entryY=1;entryDx=0;entryDy=0;" parent="1" source="PWWYntIkdXANuu-mSkj--53" target="PWWYntIkdXANuu-mSkj--3" edge="1">
          <mxGeometry relative="1" as="geometry" />
        </mxCell>
        <mxCell id="PWWYntIkdXANuu-mSkj--59" value="1" style="edgeLabel;html=1;align=center;verticalAlign=middle;resizable=0;points=[];" parent="PWWYntIkdXANuu-mSkj--55" vertex="1" connectable="0">
          <mxGeometry x="0.2145" y="-1" relative="1" as="geometry">
            <mxPoint as="offset" />
          </mxGeometry>
        </mxCell>
        <mxCell id="PWWYntIkdXANuu-mSkj--53" value="关联" style="shape=rhombus;perimeter=rhombusPerimeter;whiteSpace=wrap;html=1;align=center;" parent="1" vertex="1">
          <mxGeometry x="428" y="380" width="105" height="50" as="geometry" />
        </mxCell>
        <mxCell id="PWWYntIkdXANuu-mSkj--56" value="借据编号" style="ellipse;whiteSpace=wrap;html=1;align=center;" parent="1" vertex="1">
          <mxGeometry x="200" y="290" width="100" height="40" as="geometry" />
        </mxCell>
      </root>
    </mxGraphModel>
  </diagram>
</mxfile>
